<mxfile host="app.diagrams.net" modified="2020-08-02T08:53:37.595Z" agent="5.0 (Windows NT 10.0; Win64; x64) AppleWebKit/537.36 (KHTML, like Gecko) Chrome/84.0.4147.105 Safari/537.36" etag="-EshZP20cBUuZNbw-s55" version="13.5.8" type="github">
  <diagram id="IQENti8_TxaLT-pQkbUb" name="Page-1">
    <mxGraphModel dx="682" dy="361" grid="1" gridSize="10" guides="1" tooltips="1" connect="1" arrows="1" fold="1" page="1" pageScale="1" pageWidth="827" pageHeight="1169" math="0" shadow="0">
      <root>
        <mxCell id="0" />
        <mxCell id="1" parent="0" />
        <mxCell id="26J19-xZZhjFKxqpOn9U-1" value="sistema nervioso" style="rounded=0;whiteSpace=wrap;html=1;" vertex="1" parent="1">
          <mxGeometry x="330" y="10" width="120" height="60" as="geometry" />
        </mxCell>
        <mxCell id="26J19-xZZhjFKxqpOn9U-3" value="Se divide en&amp;nbsp;" style="endArrow=classic;html=1;exitX=0.5;exitY=1;exitDx=0;exitDy=0;" edge="1" parent="1" source="26J19-xZZhjFKxqpOn9U-1">
          <mxGeometry relative="1" as="geometry">
            <mxPoint x="330" y="230" as="sourcePoint" />
            <mxPoint x="390" y="120" as="targetPoint" />
          </mxGeometry>
        </mxCell>
        <mxCell id="26J19-xZZhjFKxqpOn9U-7" value="" style="endArrow=classic;html=1;" edge="1" parent="1">
          <mxGeometry width="50" height="50" relative="1" as="geometry">
            <mxPoint x="390" y="120" as="sourcePoint" />
            <mxPoint x="210" y="120" as="targetPoint" />
          </mxGeometry>
        </mxCell>
        <mxCell id="26J19-xZZhjFKxqpOn9U-9" value="" style="endArrow=classic;html=1;" edge="1" parent="1">
          <mxGeometry width="50" height="50" relative="1" as="geometry">
            <mxPoint x="390" y="120" as="sourcePoint" />
            <mxPoint x="590" y="120" as="targetPoint" />
          </mxGeometry>
        </mxCell>
        <mxCell id="26J19-xZZhjFKxqpOn9U-11" value="" style="endArrow=none;html=1;" edge="1" parent="1">
          <mxGeometry width="50" height="50" relative="1" as="geometry">
            <mxPoint x="210" y="140" as="sourcePoint" />
            <mxPoint x="210" y="120" as="targetPoint" />
          </mxGeometry>
        </mxCell>
        <mxCell id="26J19-xZZhjFKxqpOn9U-13" value="Sistema nervioso central." style="rounded=1;whiteSpace=wrap;html=1;" vertex="1" parent="1">
          <mxGeometry x="150" y="140" width="120" height="60" as="geometry" />
        </mxCell>
        <mxCell id="26J19-xZZhjFKxqpOn9U-15" value="" style="endArrow=classic;html=1;exitX=0.5;exitY=1;exitDx=0;exitDy=0;" edge="1" parent="1" source="26J19-xZZhjFKxqpOn9U-13">
          <mxGeometry width="50" height="50" relative="1" as="geometry">
            <mxPoint x="360" y="240" as="sourcePoint" />
            <mxPoint x="210" y="230" as="targetPoint" />
          </mxGeometry>
        </mxCell>
        <mxCell id="26J19-xZZhjFKxqpOn9U-14" value="Sistema nervioso periférico." style="rounded=1;whiteSpace=wrap;html=1;" vertex="1" parent="1">
          <mxGeometry x="520" y="140" width="120" height="60" as="geometry" />
        </mxCell>
        <mxCell id="26J19-xZZhjFKxqpOn9U-19" value="" style="endArrow=none;html=1;exitX=0.5;exitY=0;exitDx=0;exitDy=0;" edge="1" parent="1" source="26J19-xZZhjFKxqpOn9U-14">
          <mxGeometry width="50" height="50" relative="1" as="geometry">
            <mxPoint x="460" y="200" as="sourcePoint" />
            <mxPoint x="580" y="120" as="targetPoint" />
          </mxGeometry>
        </mxCell>
        <mxCell id="26J19-xZZhjFKxqpOn9U-20" value="" style="endArrow=classic;html=1;exitX=0.5;exitY=1;exitDx=0;exitDy=0;" edge="1" parent="1" source="26J19-xZZhjFKxqpOn9U-14">
          <mxGeometry width="50" height="50" relative="1" as="geometry">
            <mxPoint x="430" y="320" as="sourcePoint" />
            <mxPoint x="580" y="230" as="targetPoint" />
          </mxGeometry>
        </mxCell>
        <mxCell id="26J19-xZZhjFKxqpOn9U-23" value="" style="edgeStyle=orthogonalEdgeStyle;rounded=0;orthogonalLoop=1;jettySize=auto;html=1;" edge="1" parent="1" source="26J19-xZZhjFKxqpOn9U-21" target="26J19-xZZhjFKxqpOn9U-22">
          <mxGeometry relative="1" as="geometry" />
        </mxCell>
        <mxCell id="26J19-xZZhjFKxqpOn9U-24" style="edgeStyle=orthogonalEdgeStyle;rounded=0;orthogonalLoop=1;jettySize=auto;html=1;entryX=0.25;entryY=0;entryDx=0;entryDy=0;entryPerimeter=0;" edge="1" parent="1" source="26J19-xZZhjFKxqpOn9U-21" target="26J19-xZZhjFKxqpOn9U-25">
          <mxGeometry relative="1" as="geometry">
            <mxPoint x="640" y="310" as="targetPoint" />
          </mxGeometry>
        </mxCell>
        <mxCell id="26J19-xZZhjFKxqpOn9U-28" value="Se compone de" style="edgeLabel;html=1;align=center;verticalAlign=middle;resizable=0;points=[];" vertex="1" connectable="0" parent="26J19-xZZhjFKxqpOn9U-24">
          <mxGeometry x="-0.5802" y="2" relative="1" as="geometry">
            <mxPoint as="offset" />
          </mxGeometry>
        </mxCell>
        <mxCell id="26J19-xZZhjFKxqpOn9U-21" value="Formado por red de nervios que se extienden por todo el cuerpo." style="rounded=1;whiteSpace=wrap;html=1;" vertex="1" parent="1">
          <mxGeometry x="520" y="230" width="120" height="60" as="geometry" />
        </mxCell>
        <mxCell id="26J19-xZZhjFKxqpOn9U-22" value="Sistema nervioso asomatico maneja acciones voluntarias" style="whiteSpace=wrap;html=1;rounded=1;" vertex="1" parent="1">
          <mxGeometry x="470" y="320" width="120" height="50" as="geometry" />
        </mxCell>
        <mxCell id="26J19-xZZhjFKxqpOn9U-25" value="Sistema nervioso autonomo encargado de manejar acciones involuntarias" style="rounded=1;whiteSpace=wrap;html=1;" vertex="1" parent="1">
          <mxGeometry x="610" y="320" width="120" height="50" as="geometry" />
        </mxCell>
        <mxCell id="26J19-xZZhjFKxqpOn9U-26" style="edgeStyle=orthogonalEdgeStyle;rounded=0;orthogonalLoop=1;jettySize=auto;html=1;exitX=0.5;exitY=1;exitDx=0;exitDy=0;" edge="1" parent="1" source="26J19-xZZhjFKxqpOn9U-22" target="26J19-xZZhjFKxqpOn9U-22">
          <mxGeometry relative="1" as="geometry" />
        </mxCell>
        <mxCell id="26J19-xZZhjFKxqpOn9U-30" value="&amp;nbsp;" style="text;html=1;strokeColor=none;fillColor=none;align=center;verticalAlign=middle;whiteSpace=wrap;rounded=0;" vertex="1" parent="1">
          <mxGeometry x="180" y="240" width="40" height="20" as="geometry" />
        </mxCell>
        <mxCell id="26J19-xZZhjFKxqpOn9U-33" style="edgeStyle=orthogonalEdgeStyle;rounded=0;orthogonalLoop=1;jettySize=auto;html=1;" edge="1" parent="1" source="26J19-xZZhjFKxqpOn9U-31">
          <mxGeometry relative="1" as="geometry">
            <mxPoint x="210.0000000000001" y="300" as="targetPoint" />
          </mxGeometry>
        </mxCell>
        <mxCell id="26J19-xZZhjFKxqpOn9U-31" value="Recibe, integra y procesa información para enviar y generar una conducta." style="rounded=1;whiteSpace=wrap;html=1;align=left;" vertex="1" parent="1">
          <mxGeometry x="150" y="230" width="120" height="50" as="geometry" />
        </mxCell>
        <mxCell id="26J19-xZZhjFKxqpOn9U-50" style="edgeStyle=orthogonalEdgeStyle;rounded=0;orthogonalLoop=1;jettySize=auto;html=1;" edge="1" parent="1" source="26J19-xZZhjFKxqpOn9U-34" target="26J19-xZZhjFKxqpOn9U-39">
          <mxGeometry relative="1" as="geometry" />
        </mxCell>
        <mxCell id="26J19-xZZhjFKxqpOn9U-51" style="edgeStyle=orthogonalEdgeStyle;rounded=0;orthogonalLoop=1;jettySize=auto;html=1;entryX=0.5;entryY=0;entryDx=0;entryDy=0;" edge="1" parent="1" source="26J19-xZZhjFKxqpOn9U-34" target="26J19-xZZhjFKxqpOn9U-43">
          <mxGeometry relative="1" as="geometry">
            <mxPoint x="270" y="350" as="targetPoint" />
          </mxGeometry>
        </mxCell>
        <mxCell id="26J19-xZZhjFKxqpOn9U-34" value="Se compone de" style="text;html=1;strokeColor=none;fillColor=none;align=center;verticalAlign=middle;whiteSpace=wrap;rounded=0;" vertex="1" parent="1">
          <mxGeometry x="190" y="310" width="40" height="20" as="geometry" />
        </mxCell>
        <mxCell id="26J19-xZZhjFKxqpOn9U-52" style="edgeStyle=orthogonalEdgeStyle;rounded=0;orthogonalLoop=1;jettySize=auto;html=1;exitX=0.5;exitY=1;exitDx=0;exitDy=0;" edge="1" parent="1" source="26J19-xZZhjFKxqpOn9U-39">
          <mxGeometry relative="1" as="geometry">
            <mxPoint x="145" y="410" as="targetPoint" />
          </mxGeometry>
        </mxCell>
        <mxCell id="26J19-xZZhjFKxqpOn9U-39" value="Encefalo" style="rounded=1;whiteSpace=wrap;html=1;" vertex="1" parent="1">
          <mxGeometry x="120" y="360" width="50" height="30" as="geometry" />
        </mxCell>
        <mxCell id="26J19-xZZhjFKxqpOn9U-57" style="edgeStyle=orthogonalEdgeStyle;rounded=0;orthogonalLoop=1;jettySize=auto;html=1;exitX=0.5;exitY=1;exitDx=0;exitDy=0;" edge="1" parent="1" source="26J19-xZZhjFKxqpOn9U-43">
          <mxGeometry relative="1" as="geometry">
            <mxPoint x="264.66666666666674" y="420" as="targetPoint" />
          </mxGeometry>
        </mxCell>
        <mxCell id="26J19-xZZhjFKxqpOn9U-72" style="edgeStyle=orthogonalEdgeStyle;rounded=0;orthogonalLoop=1;jettySize=auto;html=1;" edge="1" parent="1" source="26J19-xZZhjFKxqpOn9U-43">
          <mxGeometry relative="1" as="geometry">
            <mxPoint x="329.9999999999999" y="375" as="targetPoint" />
          </mxGeometry>
        </mxCell>
        <mxCell id="26J19-xZZhjFKxqpOn9U-43" value="Médula espinal." style="rounded=1;whiteSpace=wrap;html=1;" vertex="1" parent="1">
          <mxGeometry x="240" y="360" width="60" height="30" as="geometry" />
        </mxCell>
        <mxCell id="26J19-xZZhjFKxqpOn9U-55" style="edgeStyle=orthogonalEdgeStyle;rounded=0;orthogonalLoop=1;jettySize=auto;html=1;" edge="1" parent="1" source="26J19-xZZhjFKxqpOn9U-53">
          <mxGeometry relative="1" as="geometry">
            <mxPoint x="145" y="470" as="targetPoint" />
          </mxGeometry>
        </mxCell>
        <mxCell id="26J19-xZZhjFKxqpOn9U-53" value="Constituido por" style="text;html=1;strokeColor=none;fillColor=none;align=center;verticalAlign=middle;whiteSpace=wrap;rounded=0;" vertex="1" parent="1">
          <mxGeometry x="125" y="420" width="40" height="20" as="geometry" />
        </mxCell>
        <mxCell id="26J19-xZZhjFKxqpOn9U-81" style="edgeStyle=orthogonalEdgeStyle;rounded=0;orthogonalLoop=1;jettySize=auto;html=1;exitX=0.5;exitY=1;exitDx=0;exitDy=0;" edge="1" parent="1" source="26J19-xZZhjFKxqpOn9U-56">
          <mxGeometry relative="1" as="geometry">
            <mxPoint x="200" y="650" as="targetPoint" />
          </mxGeometry>
        </mxCell>
        <mxCell id="26J19-xZZhjFKxqpOn9U-89" style="edgeStyle=orthogonalEdgeStyle;rounded=0;orthogonalLoop=1;jettySize=auto;html=1;exitX=-0.022;exitY=0.63;exitDx=0;exitDy=0;exitPerimeter=0;" edge="1" parent="1" source="26J19-xZZhjFKxqpOn9U-56">
          <mxGeometry relative="1" as="geometry">
            <mxPoint x="40" y="540.0000000000001" as="targetPoint" />
          </mxGeometry>
        </mxCell>
        <mxCell id="26J19-xZZhjFKxqpOn9U-56" value="-Tronco encefálico&amp;nbsp;&lt;br&gt;-Cerebelo&lt;br&gt;-Cerebro." style="rounded=1;whiteSpace=wrap;html=1;align=left;" vertex="1" parent="1">
          <mxGeometry x="100" y="480" width="90" height="50" as="geometry" />
        </mxCell>
        <mxCell id="26J19-xZZhjFKxqpOn9U-69" style="edgeStyle=orthogonalEdgeStyle;rounded=0;orthogonalLoop=1;jettySize=auto;html=1;exitX=0.5;exitY=1;exitDx=0;exitDy=0;" edge="1" parent="1" source="26J19-xZZhjFKxqpOn9U-59">
          <mxGeometry relative="1" as="geometry">
            <mxPoint x="265" y="500" as="targetPoint" />
            <Array as="points">
              <mxPoint x="265" y="480" />
              <mxPoint x="265" y="480" />
            </Array>
          </mxGeometry>
        </mxCell>
        <mxCell id="26J19-xZZhjFKxqpOn9U-59" value="Se protege de por los huesos cervicales y meningues." style="rounded=1;whiteSpace=wrap;html=1;align=left;" vertex="1" parent="1">
          <mxGeometry x="220" y="420" width="90" height="60" as="geometry" />
        </mxCell>
        <mxCell id="26J19-xZZhjFKxqpOn9U-82" style="edgeStyle=orthogonalEdgeStyle;rounded=0;orthogonalLoop=1;jettySize=auto;html=1;" edge="1" parent="1" source="26J19-xZZhjFKxqpOn9U-70">
          <mxGeometry relative="1" as="geometry">
            <mxPoint x="200" y="650" as="targetPoint" />
            <Array as="points">
              <mxPoint x="264" y="590" />
              <mxPoint x="200" y="590" />
            </Array>
          </mxGeometry>
        </mxCell>
        <mxCell id="26J19-xZZhjFKxqpOn9U-70" value="Cordina los reflejos osea, respuestas de nuestro cuerpo a estímulos externos." style="rounded=1;whiteSpace=wrap;html=1;" vertex="1" parent="1">
          <mxGeometry x="217.5" y="500" width="92.5" height="80" as="geometry" />
        </mxCell>
        <mxCell id="26J19-xZZhjFKxqpOn9U-76" value="Se compone de vias que transmiten mensajes del cerebros hacia el." style="rounded=1;whiteSpace=wrap;html=1;align=left;" vertex="1" parent="1">
          <mxGeometry x="320" y="350" width="120" height="60" as="geometry" />
        </mxCell>
        <mxCell id="26J19-xZZhjFKxqpOn9U-86" style="edgeStyle=orthogonalEdgeStyle;rounded=0;orthogonalLoop=1;jettySize=auto;html=1;" edge="1" parent="1" source="26J19-xZZhjFKxqpOn9U-85" target="26J19-xZZhjFKxqpOn9U-87">
          <mxGeometry relative="1" as="geometry">
            <mxPoint x="269.9999999999999" y="665" as="targetPoint" />
          </mxGeometry>
        </mxCell>
        <mxCell id="26J19-xZZhjFKxqpOn9U-88" style="edgeStyle=orthogonalEdgeStyle;rounded=0;orthogonalLoop=1;jettySize=auto;html=1;exitX=0.5;exitY=1;exitDx=0;exitDy=0;" edge="1" parent="1" source="26J19-xZZhjFKxqpOn9U-85">
          <mxGeometry relative="1" as="geometry">
            <mxPoint x="202.16666666666674" y="700" as="targetPoint" />
          </mxGeometry>
        </mxCell>
        <mxCell id="26J19-xZZhjFKxqpOn9U-85" value="&amp;nbsp;Bulbo raquideo&lt;br&gt;" style="rounded=1;whiteSpace=wrap;html=1;align=left;" vertex="1" parent="1">
          <mxGeometry x="155" y="650" width="95" height="30" as="geometry" />
        </mxCell>
        <mxCell id="26J19-xZZhjFKxqpOn9U-87" value="Sirve como nexo entre la medula espinal y el cerebro." style="rounded=1;whiteSpace=wrap;html=1;align=left;" vertex="1" parent="1">
          <mxGeometry x="290" y="640" width="100" height="50" as="geometry" />
        </mxCell>
      </root>
    </mxGraphModel>
  </diagram>
</mxfile>
